<svg xmlns="http://www.w3.org/2000/svg" width="1140" height="820" viewBox="0 0 1140 820" font-family="'Yu Gothic','Hiragino Sans','Meiryo',sans-serif">
<rect x="0" y="0" width="1140" height="820" fill="#F7FAFC"/>
<text x="570.0" y="26" text-anchor="middle" font-size="26" font-weight="bold" fill="#2D3748">おかえりロード すごろくボード</text>
<path d="M 120.0,150.0 L 300.0,150.0 L 480.0,150.0 L 660.0,150.0 L 840.0,150.0 L 1020.0,150.0 L 1020.0,330.0 L 840.0,330.0 L 660.0,330.0 L 480.0,330.0 L 300.0,330.0 L 120.0,330.0 L 120.0,510.0 L 300.0,510.0 L 480.0,510.0 L 660.0,510.0 L 840.0,510.0 L 1020.0,510.0" fill="none" stroke="#CBD5E0" stroke-width="6" stroke-dasharray="4 10"/>
<rect x="40" y="70" width="160" height="160" rx="14" fill="#C6F6D5" stroke="#38A169" stroke-width="4"/>
<text x="54" y="98" font-size="20" font-weight="bold" fill="#2D3748">1</text>
<text x="120.0" y="132" text-anchor="middle" font-size="34">🚶</text>
<text x="120.0" y="166" text-anchor="middle" font-size="19" font-weight="bold" fill="#1A202C">スタート</text>
<text x="120.0" y="192" text-anchor="middle" font-size="16" fill="#4A5568">おでかけ</text>
<rect x="220" y="70" width="160" height="160" rx="14" fill="#BEE3F8" stroke="#3182CE" stroke-width="4"/>
<text x="234" y="98" font-size="20" font-weight="bold" fill="#2D3748">2</text>
<text x="300.0" y="132" text-anchor="middle" font-size="34">😇</text>
<text x="300.0" y="166" text-anchor="middle" font-size="19" font-weight="bold" fill="#1A202C">健康</text>
<text x="300.0" y="192" text-anchor="middle" font-size="16" fill="#4A5568">こうえん</text>
<rect x="400" y="70" width="160" height="160" rx="14" fill="#FFF3B0" stroke="#D69E2E" stroke-width="4"/>
<text x="414" y="98" font-size="20" font-weight="bold" fill="#2D3748">3</text>
<text x="480.0" y="132" text-anchor="middle" font-size="34">❓</text>
<text x="480.0" y="166" text-anchor="middle" font-size="19" font-weight="bold" fill="#1A202C">どちら</text>
<text x="480.0" y="192" text-anchor="middle" font-size="16" fill="#4A5568">コンビニ</text>
<rect x="580" y="70" width="160" height="160" rx="14" fill="#FBD5C0" stroke="#DD6B20" stroke-width="4"/>
<text x="594" y="98" font-size="20" font-weight="bold" fill="#2D3748">4</text>
<text x="660.0" y="132" text-anchor="middle" font-size="34">😈</text>
<text x="660.0" y="166" text-anchor="middle" font-size="19" font-weight="bold" fill="#1A202C">誘惑</text>
<text x="660.0" y="192" text-anchor="middle" font-size="16" fill="#4A5568">だがしや</text>
<rect x="760" y="70" width="160" height="160" rx="14" fill="#D6BCFA" stroke="#805AD5" stroke-width="4"/>
<text x="774" y="98" font-size="20" font-weight="bold" fill="#2D3748">5</text>
<text x="840.0" y="132" text-anchor="middle" font-size="34">❗</text>
<text x="840.0" y="166" text-anchor="middle" font-size="19" font-weight="bold" fill="#1A202C">ハプニング</text>
<text x="840.0" y="192" text-anchor="middle" font-size="16" fill="#4A5568">？？？</text>
<rect x="940" y="70" width="160" height="160" rx="14" fill="#BEE3F8" stroke="#3182CE" stroke-width="4"/>
<text x="954" y="98" font-size="20" font-weight="bold" fill="#2D3748">6</text>
<text x="1020.0" y="132" text-anchor="middle" font-size="34">😇</text>
<text x="1020.0" y="166" text-anchor="middle" font-size="19" font-weight="bold" fill="#1A202C">健康</text>
<text x="1020.0" y="192" text-anchor="middle" font-size="16" fill="#4A5568">ジム</text>
<rect x="940" y="250" width="160" height="160" rx="14" fill="#FBD5C0" stroke="#DD6B20" stroke-width="4"/>
<text x="954" y="278" font-size="20" font-weight="bold" fill="#2D3748">7</text>
<text x="1020.0" y="312" text-anchor="middle" font-size="34">😈</text>
<text x="1020.0" y="346" text-anchor="middle" font-size="19" font-weight="bold" fill="#1A202C">誘惑</text>
<text x="1020.0" y="372" text-anchor="middle" font-size="16" fill="#4A5568">ラーメン屋</text>
<rect x="760" y="250" width="160" height="160" rx="14" fill="#E2E8F0" stroke="#A0AEC0" stroke-width="4"/>
<text x="774" y="278" font-size="20" font-weight="bold" fill="#2D3748">8</text>
<text x="840.0" y="312" text-anchor="middle" font-size="34">➖</text>
<text x="840.0" y="346" text-anchor="middle" font-size="19" font-weight="bold" fill="#1A202C">素通り</text>
<text x="840.0" y="372" text-anchor="middle" font-size="16" fill="#4A5568">じゅうたくがい</text>
<rect x="580" y="250" width="160" height="160" rx="14" fill="#BEE3F8" stroke="#3182CE" stroke-width="4"/>
<text x="594" y="278" font-size="20" font-weight="bold" fill="#2D3748">9</text>
<text x="660.0" y="312" text-anchor="middle" font-size="34">😇</text>
<text x="660.0" y="346" text-anchor="middle" font-size="19" font-weight="bold" fill="#1A202C">健康</text>
<text x="660.0" y="372" text-anchor="middle" font-size="16" fill="#4A5568">やおや</text>
<rect x="400" y="250" width="160" height="160" rx="14" fill="#D6BCFA" stroke="#805AD5" stroke-width="4"/>
<text x="414" y="278" font-size="20" font-weight="bold" fill="#2D3748">10</text>
<text x="480.0" y="312" text-anchor="middle" font-size="34">❗</text>
<text x="480.0" y="346" text-anchor="middle" font-size="19" font-weight="bold" fill="#1A202C">ハプニング</text>
<text x="480.0" y="372" text-anchor="middle" font-size="16" fill="#4A5568">？？？</text>
<rect x="220" y="250" width="160" height="160" rx="14" fill="#FBD5C0" stroke="#DD6B20" stroke-width="4"/>
<text x="234" y="278" font-size="20" font-weight="bold" fill="#2D3748">11</text>
<text x="300.0" y="312" text-anchor="middle" font-size="34">😈</text>
<text x="300.0" y="346" text-anchor="middle" font-size="19" font-weight="bold" fill="#1A202C">誘惑</text>
<text x="300.0" y="372" text-anchor="middle" font-size="16" fill="#4A5568">ファストフード</text>
<rect x="40" y="250" width="160" height="160" rx="14" fill="#BEE3F8" stroke="#3182CE" stroke-width="4"/>
<text x="54" y="278" font-size="20" font-weight="bold" fill="#2D3748">12</text>
<text x="120.0" y="312" text-anchor="middle" font-size="34">😇</text>
<text x="120.0" y="346" text-anchor="middle" font-size="19" font-weight="bold" fill="#1A202C">健康</text>
<text x="120.0" y="372" text-anchor="middle" font-size="16" fill="#4A5568">こうえん</text>
<rect x="40" y="430" width="160" height="160" rx="14" fill="#FFF3B0" stroke="#D69E2E" stroke-width="4"/>
<text x="54" y="458" font-size="20" font-weight="bold" fill="#2D3748">13</text>
<text x="120.0" y="492" text-anchor="middle" font-size="34">❓</text>
<text x="120.0" y="526" text-anchor="middle" font-size="19" font-weight="bold" fill="#1A202C">どちら</text>
<text x="120.0" y="552" text-anchor="middle" font-size="16" fill="#4A5568">じはんき</text>
<rect x="220" y="430" width="160" height="160" rx="14" fill="#E2E8F0" stroke="#A0AEC0" stroke-width="4"/>
<text x="234" y="458" font-size="20" font-weight="bold" fill="#2D3748">14</text>
<text x="300.0" y="492" text-anchor="middle" font-size="34">➖</text>
<text x="300.0" y="526" text-anchor="middle" font-size="19" font-weight="bold" fill="#1A202C">素通り</text>
<text x="300.0" y="552" text-anchor="middle" font-size="16" fill="#4A5568">じゅうたくがい</text>
<rect x="400" y="430" width="160" height="160" rx="14" fill="#FBD5C0" stroke="#DD6B20" stroke-width="4"/>
<text x="414" y="458" font-size="20" font-weight="bold" fill="#2D3748">15</text>
<text x="480.0" y="492" text-anchor="middle" font-size="34">😈</text>
<text x="480.0" y="526" text-anchor="middle" font-size="19" font-weight="bold" fill="#1A202C">誘惑</text>
<text x="480.0" y="552" text-anchor="middle" font-size="16" fill="#4A5568">ケーキ屋</text>
<rect x="580" y="430" width="160" height="160" rx="14" fill="#D6BCFA" stroke="#805AD5" stroke-width="4"/>
<text x="594" y="458" font-size="20" font-weight="bold" fill="#2D3748">16</text>
<text x="660.0" y="492" text-anchor="middle" font-size="34">❗</text>
<text x="660.0" y="526" text-anchor="middle" font-size="19" font-weight="bold" fill="#1A202C">ハプニング</text>
<text x="660.0" y="552" text-anchor="middle" font-size="16" fill="#4A5568">？？？</text>
<rect x="760" y="430" width="160" height="160" rx="14" fill="#FFF3B0" stroke="#D69E2E" stroke-width="4"/>
<text x="774" y="458" font-size="20" font-weight="bold" fill="#2D3748">17</text>
<text x="840.0" y="492" text-anchor="middle" font-size="34">❓</text>
<text x="840.0" y="526" text-anchor="middle" font-size="19" font-weight="bold" fill="#1A202C">どちら</text>
<text x="840.0" y="552" text-anchor="middle" font-size="16" fill="#4A5568">コンビニ</text>
<rect x="940" y="430" width="160" height="160" rx="14" fill="#FBBF24" stroke="#B7791F" stroke-width="4"/>
<text x="954" y="458" font-size="20" font-weight="bold" fill="#2D3748">18</text>
<text x="1020.0" y="492" text-anchor="middle" font-size="34">🏠</text>
<text x="1020.0" y="526" text-anchor="middle" font-size="19" font-weight="bold" fill="#1A202C">ゴール</text>
<text x="1020.0" y="552" text-anchor="middle" font-size="16" fill="#4A5568">帰宅</text>
<text x="570.0" y="606" text-anchor="middle" font-size="24" font-weight="bold" fill="#2D3748">体調ゲージ（-10 あくま 〜 +10 てんし）</text>
<rect x="40.0" y="620" width="48.5" height="80" fill="rgb(224,122,217)" stroke="#A0AEC0" stroke-width="2"/>
<text x="65.2" y="668" text-anchor="middle" font-size="18" fill="#1A202C">-10</text>
<rect x="90.5" y="620" width="48.5" height="80" fill="rgb(226,131,214)" stroke="#A0AEC0" stroke-width="2"/>
<text x="115.7" y="668" text-anchor="middle" font-size="18" fill="#1A202C">-9</text>
<rect x="141.0" y="620" width="48.5" height="80" fill="rgb(229,140,212)" stroke="#A0AEC0" stroke-width="2"/>
<text x="166.2" y="668" text-anchor="middle" font-size="18" fill="#1A202C">-8</text>
<rect x="191.4" y="620" width="48.5" height="80" fill="rgb(232,149,209)" stroke="#A0AEC0" stroke-width="2"/>
<text x="216.7" y="668" text-anchor="middle" font-size="18" fill="#1A202C">-7</text>
<rect x="241.9" y="620" width="48.5" height="80" fill="rgb(234,158,207)" stroke="#A0AEC0" stroke-width="2"/>
<text x="267.1" y="668" text-anchor="middle" font-size="18" fill="#1A202C">-6</text>
<rect x="292.4" y="620" width="48.5" height="80" fill="rgb(237,167,204)" stroke="#A0AEC0" stroke-width="2"/>
<text x="317.6" y="668" text-anchor="middle" font-size="18" fill="#1A202C">-5</text>
<rect x="342.9" y="620" width="48.5" height="80" fill="rgb(240,176,202)" stroke="#A0AEC0" stroke-width="2"/>
<text x="368.1" y="668" text-anchor="middle" font-size="18" fill="#1A202C">-4</text>
<rect x="393.3" y="620" width="48.5" height="80" fill="rgb(242,185,199)" stroke="#A0AEC0" stroke-width="2"/>
<text x="418.6" y="668" text-anchor="middle" font-size="18" fill="#1A202C">-3</text>
<rect x="443.8" y="620" width="48.5" height="80" fill="rgb(245,194,197)" stroke="#A0AEC0" stroke-width="2"/>
<text x="469.0" y="668" text-anchor="middle" font-size="18" fill="#1A202C">-2</text>
<rect x="494.3" y="620" width="48.5" height="80" fill="rgb(248,203,194)" stroke="#A0AEC0" stroke-width="2"/>
<text x="519.5" y="668" text-anchor="middle" font-size="18" fill="#1A202C">-1</text>
<rect x="544.8" y="620" width="48.5" height="80" fill="#EDF2F7" stroke="#A0AEC0" stroke-width="2"/>
<text x="570.0" y="668" text-anchor="middle" font-size="18" fill="#1A202C">0</text>
<rect x="595.2" y="620" width="48.5" height="80" fill="rgb(176,220,246)" stroke="#A0AEC0" stroke-width="2"/>
<text x="620.5" y="668" text-anchor="middle" font-size="18" fill="#1A202C">1</text>
<rect x="645.7" y="620" width="48.5" height="80" fill="rgb(163,213,245)" stroke="#A0AEC0" stroke-width="2"/>
<text x="671.0" y="668" text-anchor="middle" font-size="18" fill="#1A202C">2</text>
<rect x="696.2" y="620" width="48.5" height="80" fill="rgb(149,207,244)" stroke="#A0AEC0" stroke-width="2"/>
<text x="721.4" y="668" text-anchor="middle" font-size="18" fill="#1A202C">3</text>
<rect x="746.7" y="620" width="48.5" height="80" fill="rgb(136,200,242)" stroke="#A0AEC0" stroke-width="2"/>
<text x="771.9" y="668" text-anchor="middle" font-size="18" fill="#1A202C">4</text>
<rect x="797.1" y="620" width="48.5" height="80" fill="rgb(123,194,241)" stroke="#A0AEC0" stroke-width="2"/>
<text x="822.4" y="668" text-anchor="middle" font-size="18" fill="#1A202C">5</text>
<rect x="847.6" y="620" width="48.5" height="80" fill="rgb(109,187,240)" stroke="#A0AEC0" stroke-width="2"/>
<text x="872.9" y="668" text-anchor="middle" font-size="18" fill="#1A202C">6</text>
<rect x="898.1" y="620" width="48.5" height="80" fill="rgb(96,180,238)" stroke="#A0AEC0" stroke-width="2"/>
<text x="923.3" y="668" text-anchor="middle" font-size="18" fill="#1A202C">7</text>
<rect x="948.6" y="620" width="48.5" height="80" fill="rgb(82,174,237)" stroke="#A0AEC0" stroke-width="2"/>
<text x="973.8" y="668" text-anchor="middle" font-size="18" fill="#1A202C">8</text>
<rect x="999.0" y="620" width="48.5" height="80" fill="rgb(69,167,236)" stroke="#A0AEC0" stroke-width="2"/>
<text x="1024.3" y="668" text-anchor="middle" font-size="18" fill="#1A202C">9</text>
<rect x="1049.5" y="620" width="48.5" height="80" fill="rgb(56,161,235)" stroke="#A0AEC0" stroke-width="2"/>
<text x="1074.8" y="668" text-anchor="middle" font-size="18" fill="#1A202C">10</text>
<text x="50" y="726" font-size="20" fill="#C53030" font-weight="bold">😈 あくま勝利ゾーン</text>
<text x="910" y="726" font-size="20" fill="#2B6CB0" font-weight="bold">てんし勝利ゾーン 😇</text>
</svg>