<svg xmlns="http://www.w3.org/2000/svg" width="1080" height="2446" viewBox="0 0 1080 2446" font-family="'Noto Sans CJK JP','Hiragino Sans','Yu Gothic','Meiryo',sans-serif">
<defs>
<filter id="shadow" x="-20%" y="-20%" width="140%" height="150%">
  <feDropShadow dx="0" dy="5" stdDeviation="3" flood-color="#5A4A2A" flood-opacity="0.22"/>
</filter>
<filter id="soft" x="-20%" y="-20%" width="140%" height="140%">
  <feDropShadow dx="0" dy="3" stdDeviation="5" flood-color="#5A4A2A" flood-opacity="0.12"/>
</filter>
<pattern id="dots" width="26" height="26" patternUnits="userSpaceOnUse">
  <circle cx="4" cy="4" r="1.5" fill="#EADFC8"/>
</pattern>
<pattern id="stripeA" width="12" height="12" patternUnits="userSpaceOnUse" patternTransform="rotate(45)">
  <rect width="6" height="12" fill="#FFFFFF" opacity="0.35"/>
</pattern>
<pattern id="cardback" width="14" height="14" patternUnits="userSpaceOnUse" patternTransform="rotate(45)">
  <rect width="14" height="14" fill="#EFE7F8"/><rect width="7" height="7" fill="#E3D8F2"/>
</pattern>
<linearGradient id="sky" x1="0" y1="0" x2="0" y2="1">
  <stop offset="0" stop-color="#FDF7EC"/><stop offset="1" stop-color="#F7EEDC"/>
</linearGradient>
</defs>
<rect width="1080" height="2446" fill="url(#sky)"/>
<rect width="1080" height="2446" fill="url(#dots)"/>
<text x="62" y="94" font-size="48" font-weight="900" text-anchor="start" fill="#3A3550" stroke="#3A3550" stroke-width="6" stroke-linejoin="round" paint-order="stroke">おかえりロード 早見表</text>
<text x="60" y="90" font-size="48" font-weight="900" text-anchor="start" fill="#FFFFFF" stroke="#3A3550" stroke-width="5" stroke-linejoin="round" paint-order="stroke">おかえりロード 早見表</text>
<g transform="translate(870.0,26.0) scale(1.2500)">
<path d="M15 30 Q6 22 1 26 Q0 34 4 38 Q2 44 8 46 Q9 51 16 48 Z" fill="#FFFFFF" stroke="#3A3550" stroke-width="3.2" stroke-linejoin="round" stroke-linecap="round"/>
<path d="M5 33 Q9 35 13 34 M8 41 Q12 42 15 40" fill="none" stroke="#C9D6EA" stroke-width="2" stroke-linecap="round"/>
<path d="M49 30 Q58 22 63 26 Q64 34 60 38 Q62 44 56 46 Q55 51 48 48 Z" fill="#FFFFFF" stroke="#3A3550" stroke-width="3.2" stroke-linejoin="round" stroke-linecap="round"/>
<path d="M59 33 Q55 35 51 34 M56 41 Q52 42 49 40" fill="none" stroke="#C9D6EA" stroke-width="2" stroke-linecap="round"/>
<ellipse cx="32" cy="9" rx="13" ry="4.2" fill="none" stroke="#F2C230" stroke-width="4"/>
<ellipse cx="32" cy="9" rx="13" ry="4.2" fill="none" stroke="#FFF2B0" stroke-width="1.4"/>
<circle cx="32" cy="36" r="20" fill="#FFE3CC" stroke="#3A3550" stroke-width="3.2" stroke-linejoin="round" stroke-linecap="round"/>
<path d="M13 32 Q14 16 32 16 Q50 16 51 32 Q46 24 40 25 Q36 20 30 24 Q22 21 13 32 Z" fill="#FFD66B" stroke="#3A3550" stroke-width="3.2" stroke-linejoin="round" stroke-linecap="round"/>
<path d="M22 37 Q25 34 28 37 M36 37 Q39 34 42 37" fill="none" stroke="#3A3550" stroke-width="3.2" stroke-linejoin="round" stroke-linecap="round"/>
<ellipse cx="20" cy="43" rx="3.6" ry="2.4" fill="#FFAFC0"/><ellipse cx="44" cy="43" rx="3.6" ry="2.4" fill="#FFAFC0"/>
<path d="M28 44 Q32 48 36 44" fill="none" stroke="#3A3550" stroke-width="3.2" stroke-linejoin="round" stroke-linecap="round"/></g>
<g transform="translate(955.0,37.0) scale(1.0938)">
<path d="M48 48 Q60 50 58 38" fill="none" stroke="#3A3550" stroke-width="3.2" stroke-linejoin="round" stroke-linecap="round"/>
<path d="M58 38 L53 36 L59 31 L62 37 Z" fill="#7B3FA0" stroke="#3A3550" stroke-width="3.2" stroke-linejoin="round" stroke-linecap="round"/>
<path d="M17 24 L12 7 L26 18 Z" fill="#7B3FA0" stroke="#3A3550" stroke-width="3.2" stroke-linejoin="round" stroke-linecap="round"/>
<path d="M47 24 L52 7 L38 18 Z" fill="#7B3FA0" stroke="#3A3550" stroke-width="3.2" stroke-linejoin="round" stroke-linecap="round"/>
<circle cx="32" cy="36" r="20" fill="#C9A3F0" stroke="#3A3550" stroke-width="3.2" stroke-linejoin="round" stroke-linecap="round"/>
<path d="M14 30 Q20 18 32 18 Q44 18 50 30 Q42 25 32 27 Q22 25 14 30 Z" fill="#7B3FA0" stroke="#3A3550" stroke-width="3.2" stroke-linejoin="round" stroke-linecap="round"/>
<path d="M20 33 L28 36 M44 33 L36 36" stroke="#3A3550" stroke-width="3.2" stroke-linejoin="round" stroke-linecap="round" fill="none"/>
<circle cx="25" cy="39" r="2.4" fill="#3A3550"/><circle cx="39" cy="39" r="2.4" fill="#3A3550"/>
<ellipse cx="19" cy="45" rx="3.4" ry="2.2" fill="#F48FB1"/><ellipse cx="45" cy="45" rx="3.4" ry="2.2" fill="#F48FB1"/>
<path d="M25 46 Q32 52 39 46" fill="none" stroke="#3A3550" stroke-width="3.2" stroke-linejoin="round" stroke-linecap="round"/>
<path d="M35 48 L36.5 52 L38 47.5" fill="#FFFFFF" stroke="#3A3550" stroke-width="1.6" stroke-linejoin="round"/></g>
<text x="858.0" y="58.0" font-size="14" font-weight="500" fill="#5B5468" text-anchor="end" letter-spacing="1">肩の上で、てんしとあくまが言い争う。</text>
<text x="858.0" y="86.0" font-size="14" font-weight="500" fill="#5B5468" text-anchor="end" letter-spacing="1">あのひとの好物を、だれも知らない。</text>
<g filter="url(#soft)"><rect x="40" y="140" width="1000" height="120" rx="24" fill="#FFFFFF"/></g>
<rect x="40" y="140" width="1000" height="120" rx="24" fill="none" stroke="#3A3550" stroke-width="3"/>
<rect x="64" y="122" width="136" height="38" rx="19" fill="#3A3550" stroke="#3A3550" stroke-width="3"/>
<text x="82.0" y="150.0" font-size="22" font-weight="900" fill="#FFFFFF" text-anchor="start" >勝ち負け</text>
<text x="76.0" y="200.0" font-size="20" font-weight="bold" fill="#3A3550" text-anchor="start" >ゴール（マス18）で「おかえり勝負」（カード勝負1回）をした後のゲージで決まる。</text>
<text x="76.0" y="234.0" font-size="18" font-weight="normal" fill="#77708C" text-anchor="start" >+1以上 → てんしの勝ち　／　−1以下 → あくまの勝ち　／　0 → 1d6（奇数てんし）</text>
<g filter="url(#soft)"><rect x="40" y="300" width="1000" height="206" rx="24" fill="#FFFFFF"/></g>
<rect x="40" y="300" width="1000" height="206" rx="24" fill="none" stroke="#3FA66B" stroke-width="3"/>
<rect x="64" y="282" width="161" height="38" rx="19" fill="#3FA66B" stroke="#3A3550" stroke-width="3"/>
<text x="82.0" y="310.0" font-size="22" font-weight="900" fill="#FFFFFF" text-anchor="start" >手番と手札</text>
<text x="76.0" y="360.0" font-size="17" font-weight="normal" fill="#3A3550" text-anchor="start" >移動：1d3+1（2〜4マス）。振る前なら、手札の A〜4 を1枚出してその数だけ進んでもよい（歩幅カード）</text>
<text x="76.0" y="396.0" font-size="17" font-weight="normal" fill="#3A3550" text-anchor="start" >使ったカードは補充しない。合流マス（8・14）を通るか止まると、両陣営とも手札を合計10枚まで補給</text>
<text x="76.0" y="432.0" font-size="17" font-weight="normal" fill="#3A3550" text-anchor="start" >陣営の手札は合計12枚まで（超えたらすぐ選んで捨てる）。手札0枚ならカード勝負は数字0</text>
<text x="76.0" y="468.0" font-size="17" font-weight="normal" fill="#3A3550" text-anchor="start" >レーンのお店を通りすぎるとき、お店の陣営は「呼び込み」できる（通ればそこで止まる）</text>
<g filter="url(#soft)"><rect x="40" y="546" width="1000" height="200" rx="24" fill="#FFFFFF"/></g>
<rect x="40" y="546" width="1000" height="200" rx="24" fill="none" stroke="#7A5CC6" stroke-width="3"/>
<rect x="64" y="528" width="386" height="38" rx="19" fill="#7A5CC6" stroke="#3A3550" stroke-width="3"/>
<text x="82.0" y="556.0" font-size="22" font-weight="900" fill="#FFFFFF" text-anchor="start" >カードの出し方（いつも同じ）</text>
<text x="76.0" y="606.0" font-size="18.5" font-weight="normal" fill="#3A3550" text-anchor="start" >① 出すカードを陣営で決めて勝負エリアに【裏向き】で置き、「準備OK」と言う（パスでも同じ）</text>
<text x="76.0" y="642.0" font-size="18.5" font-weight="normal" fill="#3A3550" text-anchor="start" >② そろったら手番プレイヤーの「せーの」で【全体に公開する】。置いていない陣営は「パス」</text>
<text x="76.0" y="678.0" font-size="18.5" font-weight="normal" fill="#3A3550" text-anchor="start" >③ ゲージを動かし、勝った／通ったカードの J・Q・K 効果としかけを処理</text>
<text x="76.0" y="714.0" font-size="18.5" font-weight="normal" fill="#3A3550" text-anchor="start" >④ 使ったカードは捨て札へ（補充はしない）</text>
<g filter="url(#soft)"><rect x="40" y="786" width="1000" height="320" rx="24" fill="#FFFFFF"/></g>
<rect x="40" y="786" width="1000" height="320" rx="24" fill="none" stroke="#E0A100" stroke-width="3"/>
<rect x="64" y="768" width="311" height="38" rx="19" fill="#E0A100" stroke="#3A3550" stroke-width="3"/>
<text x="82.0" y="796.0" font-size="22" font-weight="900" fill="#FFFFFF" text-anchor="start" >マスごとのゲージの動き</text>
<g transform="translate(69.0,829.0) scale(0.7188)">
<ellipse cx="32" cy="9" rx="13" ry="4.2" fill="none" stroke="#F2C230" stroke-width="4"/>
<ellipse cx="32" cy="9" rx="13" ry="4.2" fill="none" stroke="#FFF2B0" stroke-width="1.4"/>
<circle cx="32" cy="36" r="20" fill="#FFE3CC" stroke="#3A3550" stroke-width="3.2" stroke-linejoin="round" stroke-linecap="round"/>
<path d="M13 32 Q14 16 32 16 Q50 16 51 32 Q46 24 40 25 Q36 20 30 24 Q22 21 13 32 Z" fill="#FFD66B" stroke="#3A3550" stroke-width="3.2" stroke-linejoin="round" stroke-linecap="round"/>
<path d="M22 37 Q25 34 28 37 M36 37 Q39 34 42 37" fill="none" stroke="#3A3550" stroke-width="3.2" stroke-linejoin="round" stroke-linecap="round"/>
<ellipse cx="20" cy="43" rx="3.6" ry="2.4" fill="#FFAFC0"/><ellipse cx="44" cy="43" rx="3.6" ry="2.4" fill="#FFAFC0"/>
<path d="M28 44 Q32 48 36 44" fill="none" stroke="#3A3550" stroke-width="3.2" stroke-linejoin="round" stroke-linecap="round"/></g>
<text x="126.0" y="859.0" font-size="20" font-weight="900" fill="#2F7FC8" text-anchor="start" >健康マス</text>
<text x="280.0" y="846.0" font-size="16.5" font-weight="normal" fill="#3A3550" text-anchor="start" >てんしが主役・あくまは横やり（どちらもパス可）</text>
<text x="280.0" y="871.0" font-size="16.5" font-weight="normal" fill="#77708C" text-anchor="start" >主役 − 横やり だけ ＋ へ（マイナスなら0）</text>
<g transform="translate(69.0,889.0) scale(0.7188)">
<path d="M17 24 L12 7 L26 18 Z" fill="#7B3FA0" stroke="#3A3550" stroke-width="3.2" stroke-linejoin="round" stroke-linecap="round"/>
<path d="M47 24 L52 7 L38 18 Z" fill="#7B3FA0" stroke="#3A3550" stroke-width="3.2" stroke-linejoin="round" stroke-linecap="round"/>
<circle cx="32" cy="36" r="20" fill="#C9A3F0" stroke="#3A3550" stroke-width="3.2" stroke-linejoin="round" stroke-linecap="round"/>
<path d="M14 30 Q20 18 32 18 Q44 18 50 30 Q42 25 32 27 Q22 25 14 30 Z" fill="#7B3FA0" stroke="#3A3550" stroke-width="3.2" stroke-linejoin="round" stroke-linecap="round"/>
<path d="M20 33 L28 36 M44 33 L36 36" stroke="#3A3550" stroke-width="3.2" stroke-linejoin="round" stroke-linecap="round" fill="none"/>
<circle cx="25" cy="39" r="2.4" fill="#3A3550"/><circle cx="39" cy="39" r="2.4" fill="#3A3550"/>
<ellipse cx="19" cy="45" rx="3.4" ry="2.2" fill="#F48FB1"/><ellipse cx="45" cy="45" rx="3.4" ry="2.2" fill="#F48FB1"/>
<path d="M25 46 Q32 52 39 46" fill="none" stroke="#3A3550" stroke-width="3.2" stroke-linejoin="round" stroke-linecap="round"/>
<path d="M35 48 L36.5 52 L38 47.5" fill="#FFFFFF" stroke="#3A3550" stroke-width="1.6" stroke-linejoin="round"/></g>
<text x="126.0" y="919.0" font-size="20" font-weight="900" fill="#D0436A" text-anchor="start" >誘惑マス</text>
<text x="280.0" y="906.0" font-size="16.5" font-weight="normal" fill="#3A3550" text-anchor="start" >あくまが主役・てんしは横やり（どちらもパス可）</text>
<text x="280.0" y="931.0" font-size="16.5" font-weight="normal" fill="#77708C" text-anchor="start" >主役 − 横やり だけ − へ（マイナスなら0）</text>
<g transform="translate(69.0,949.0) scale(0.7188)">
<path d="M6 10 L58 10 L58 46 L36 46 L26 58 L26 46 L6 46 Z" fill="#9B7BE0" stroke="#3A3550" stroke-width="3.2" stroke-linejoin="round" stroke-linecap="round"/>
<text x="32" y="38" text-anchor="middle" font-size="25" font-weight="900" fill="#FFFFFF" font-family="'Noto Sans CJK JP',sans-serif">VS</text></g>
<text x="126.0" y="979.0" font-size="20" font-weight="900" fill="#7A5CC6" text-anchor="start" >カード勝負</text>
<text x="280.0" y="966.0" font-size="16.5" font-weight="normal" fill="#3A3550" text-anchor="start" >どちらでもマス：両陣営とも必ず1枚（またはペア）を出す。手札0なら数字0</text>
<text x="280.0" y="991.0" font-size="16.5" font-weight="normal" fill="#77708C" text-anchor="start" >大きい方の陣営へ、差の分だけ動く</text>
<g transform="translate(69.0,1009.0) scale(0.7188)">
<rect x="29" y="8" width="6" height="52" rx="2" fill="#A86E4A" stroke="#3A3550" stroke-width="3.2" stroke-linejoin="round" stroke-linecap="round"/>
<path d="M10 12 L46 12 L56 20 L46 28 L10 28 Z" fill="#5B9BE0" stroke="#3A3550" stroke-width="3.2" stroke-linejoin="round" stroke-linecap="round"/>
<path d="M54 32 L18 32 L8 40 L18 48 L54 48 Z" fill="#EE6D8E" stroke="#3A3550" stroke-width="3.2" stroke-linejoin="round" stroke-linecap="round"/>
<path d="M17 20 L39 20" stroke="#FFFFFF" stroke-width="3" stroke-linecap="round"/>
<path d="M25 40 L47 40" stroke="#FFFFFF" stroke-width="3" stroke-linecap="round"/>
<path d="M18 60 L46 60" stroke="#3A3550" stroke-width="3.2" stroke-linejoin="round" stroke-linecap="round"/></g>
<text x="126.0" y="1039.0" font-size="20" font-weight="900" fill="#3A3550" text-anchor="start" >わかれ道</text>
<text x="280.0" y="1026.0" font-size="16.5" font-weight="normal" fill="#3A3550" text-anchor="start" >止まっても【通過しても】、どちらでもマスと同じカード勝負</text>
<text x="280.0" y="1051.0" font-size="16.5" font-weight="normal" fill="#77708C" text-anchor="start" >勝ったカードが 赤♥♦→健康レーン／黒♠♣→誘惑レーン</text>
<text x="76.0" y="1088.0" font-size="15.5" font-weight="normal" fill="#77708C" text-anchor="start" >同数は引き分け（ゲージ動かず・効果なし。わかれ道は 1d2：奇数=健康）</text>
<g filter="url(#soft)"><rect x="40" y="1146" width="1000" height="250" rx="24" fill="#FFFFFF"/></g>
<rect x="40" y="1146" width="1000" height="250" rx="24" fill="none" stroke="#3FA66B" stroke-width="3"/>
<rect x="64" y="1128" width="211" height="38" rx="19" fill="#3FA66B" stroke="#3A3550" stroke-width="3"/>
<text x="82.0" y="1156.0" font-size="22" font-weight="900" fill="#FFFFFF" text-anchor="start" >ボードのしかけ</text>
<circle cx="96" cy="1204" r="18" fill="#FFFFFF" stroke="#3A3550" stroke-width="2.6"/><text x="96" y="1211.6" text-anchor="middle" font-size="23" font-weight="bold" fill="#E0344F" font-family="'DejaVu Sans',sans-serif">♥</text>
<text x="136.0" y="1211.0" font-size="19" font-weight="900" fill="#3A3550" text-anchor="start" >お気に入りスート +3</text>
<text x="370.0" y="1211.0" font-size="16" font-weight="normal" fill="#77708C" text-anchor="start" >健康／誘惑マスのお店の好きなスートで、主役が通すと +3</text>
<polygon points="96.0,1228.0 104.7,1240.0 118.8,1244.6 110.2,1256.6 110.1,1271.4 96.0,1266.9 81.9,1271.4 81.8,1256.6 73.2,1244.6 87.3,1240.0" fill="#FFC531" stroke="#3A3550" stroke-width="2.6" stroke-linejoin="round"/><text x="96" y="1257.5" text-anchor="middle" font-size="16" font-weight="900" fill="#3A3550">×2</text>
<text x="136.0" y="1259.0" font-size="19" font-weight="900" fill="#3A3550" text-anchor="start" >大勝負マス ×2</text>
<text x="370.0" y="1259.0" font-size="16" font-weight="normal" fill="#77708C" text-anchor="start" >合流マス（8・14）のカード勝負は、ゲージの動きが2倍（先に補給）</text>
<g transform="translate(89.0,1300.0) rotate(-12) scale(1.0)"><rect x="-13" y="-18" width="26" height="36" rx="4" fill="#FFFFFF" stroke="#3A3550" stroke-width="2.4"/><text x="0" y="2" text-anchor="middle" font-size="15" font-weight="900" fill="#3A3550">7</text><text x="0" y="14" text-anchor="middle" font-size="10" fill="#3A3550" font-family="'DejaVu Sans'">♠</text></g><g transform="translate(103.0,1300.0) rotate(10) scale(1.0)"><rect x="-13" y="-18" width="26" height="36" rx="4" fill="#FFFFFF" stroke="#3A3550" stroke-width="2.4"/><text x="0" y="2" text-anchor="middle" font-size="15" font-weight="900" fill="#E0344F">7</text><text x="0" y="14" text-anchor="middle" font-size="10" fill="#E0344F" font-family="'DejaVu Sans'">♥</text></g>
<text x="136.0" y="1307.0" font-size="19" font-weight="900" fill="#3A3550" text-anchor="start" >ペア出し</text>
<text x="370.0" y="1307.0" font-size="16" font-weight="normal" fill="#77708C" text-anchor="start" >同じ数字2枚を1組で出すと、数字は2枚の合計</text>
<g transform="translate(96,1348) scale(1.1)"><path d="M-8,18 L-8,-18" stroke="#3A3550" stroke-width="3" stroke-linecap="round"/><path d="M-8,-18 L16,-12 L-8,-4 Z" fill="#FF8A3D" stroke="#3A3550" stroke-width="2.4" stroke-linejoin="round"/><text x="10" y="16" text-anchor="middle" font-size="14" font-weight="900" fill="#3A3550">+2</text></g>
<text x="136.0" y="1355.0" font-size="19" font-weight="900" fill="#3A3550" text-anchor="start" >がんばれ +2／+4</text>
<text x="370.0" y="1355.0" font-size="16" font-weight="normal" fill="#77708C" text-anchor="start" >ゲージが相手側に4以上傾いている陣営は数字 +2、8以上なら +4</text>
<g filter="url(#soft)"><rect x="40" y="1436" width="1000" height="250" rx="24" fill="#FFFFFF"/></g>
<rect x="40" y="1436" width="1000" height="250" rx="24" fill="none" stroke="#7A5CC6" stroke-width="3"/>
<rect x="64" y="1418" width="386" height="38" rx="19" fill="#7A5CC6" stroke="#3A3550" stroke-width="3"/>
<text x="82.0" y="1446.0" font-size="22" font-weight="900" fill="#FFFFFF" text-anchor="start" >計算の順番（迷ったら上から）</text>
<text x="76.0" y="1492.0" font-size="16.5" font-weight="normal" fill="#3A3550" text-anchor="start" >1 数字：カード（ペアは合計）→ 妨害なら0／♣半減 → がんばれ +2・+4 → 切り札 +3／−3</text>
<text x="76.0" y="1524.0" font-size="16.5" font-weight="normal" fill="#3A3550" text-anchor="start" >2 差：健康／誘惑マスは 主役 − 横やり（0未満は0）、カード勝負は 大きい方 − 小さい方</text>
<text x="76.0" y="1556.0" font-size="16.5" font-weight="normal" fill="#3A3550" text-anchor="start" >3 ボーナス（勝った／通ったカードだけ）：K の大逆転 +3、お気に入りスート +3</text>
<text x="76.0" y="1588.0" font-size="16.5" font-weight="normal" fill="#3A3550" text-anchor="start" >4 2倍：大勝負マス、または おうえん団／ごほうびデー（重なっても2倍まで）</text>
<text x="76.0" y="1620.0" font-size="16.5" font-weight="normal" fill="#3A3550" text-anchor="start" >5 おまもり／ごろ寝：その陣営に不利な向きの動きを0に</text>
<text x="76.0" y="1652.0" font-size="16.5" font-weight="normal" fill="#3A3550" text-anchor="start" >6 ゲージを動かす（−10〜+10 で止まる）</text>
<g filter="url(#soft)"><rect x="40" y="1726" width="1000" height="190" rx="24" fill="#FFFFFF"/></g>
<rect x="40" y="1726" width="1000" height="190" rx="24" fill="none" stroke="#2F7FC8" stroke-width="3"/>
<rect x="64" y="1708" width="586" height="38" rx="19" fill="#2F7FC8" stroke="#3A3550" stroke-width="3"/>
<text x="82.0" y="1736.0" font-size="22" font-weight="900" fill="#FFFFFF" text-anchor="start" >カードの数字と効果（勝った／通ったときだけ）</text>
<text x="76.0" y="1784.0" font-size="21" font-weight="900" fill="#3A3550" text-anchor="start" >A〜10</text>
<text x="190.0" y="1784.0" font-size="19" font-weight="bold" fill="#77708C" text-anchor="start" >1〜10</text>
<text x="270.0" y="1784.0" font-size="17.5" font-weight="normal" fill="#3A3550" text-anchor="start" >効果なし</text>
<text x="76.0" y="1820.0" font-size="21" font-weight="900" fill="#3A3550" text-anchor="start" >J</text>
<text x="190.0" y="1820.0" font-size="19" font-weight="bold" fill="#77708C" text-anchor="start" >11</text>
<text x="270.0" y="1820.0" font-size="17.5" font-weight="normal" fill="#3A3550" text-anchor="start" >妨害：相手陣営が次に公開するカードを 数字0・効果なし に</text>
<text x="76.0" y="1856.0" font-size="21" font-weight="900" fill="#3A3550" text-anchor="start" >Q</text>
<text x="190.0" y="1856.0" font-size="19" font-weight="bold" fill="#77708C" text-anchor="start" >12</text>
<text x="270.0" y="1856.0" font-size="17.5" font-weight="normal" fill="#3A3550" text-anchor="start" >先導：NPC をさらに1マス進める（先のマスも処理）</text>
<text x="76.0" y="1892.0" font-size="21" font-weight="900" fill="#3A3550" text-anchor="start" >K</text>
<text x="190.0" y="1892.0" font-size="19" font-weight="bold" fill="#77708C" text-anchor="start" >13</text>
<text x="270.0" y="1892.0" font-size="17.5" font-weight="normal" fill="#3A3550" text-anchor="start" >大逆転：ゲージをさらに +3（自陣営側へ）</text>
<g filter="url(#soft)"><rect x="40" y="1956" width="1000" height="270" rx="24" fill="#FFFFFF"/></g>
<rect x="40" y="1956" width="1000" height="270" rx="24" fill="none" stroke="#7B3FA0" stroke-width="3"/>
<rect x="64" y="1938" width="561" height="38" rx="19" fill="#7B3FA0" stroke="#3A3550" stroke-width="3"/>
<text x="82.0" y="1966.0" font-size="22" font-weight="900" fill="#FFFFFF" text-anchor="start" >切り札カード（6枚から3枚選ぶ・1回だけ）</text>
<text x="76.0" y="2008.0" font-size="17" font-weight="900" fill="#2F7FC8" text-anchor="start" >てんし</text>
<text x="230.0" y="2008.0" font-size="17" font-weight="900" fill="#D0436A" text-anchor="start" >あくま</text>
<text x="400.0" y="2008.0" font-size="15" font-weight="bold" fill="#77708C" text-anchor="start" >効果（そえる＝数字カードと一緒に裏向きで置く）</text>
<text x="76.0" y="2042.0" font-size="17" font-weight="bold" fill="#3A3550" text-anchor="start" >ラジオたいそう</text>
<text x="230.0" y="2042.0" font-size="17" font-weight="bold" fill="#3A3550" text-anchor="start" >大盛りサービス</text>
<text x="400.0" y="2042.0" font-size="17" font-weight="normal" fill="#3A3550" text-anchor="start" >そえる：自陣営の数字 +3</text>
<text x="76.0" y="2072.0" font-size="17" font-weight="bold" fill="#3A3550" text-anchor="start" >おみずをどうぞ</text>
<text x="230.0" y="2072.0" font-size="17" font-weight="bold" fill="#3A3550" text-anchor="start" >ねむけさそい</text>
<text x="400.0" y="2072.0" font-size="17" font-weight="normal" fill="#3A3550" text-anchor="start" >そえる：相手陣営の数字 −3</text>
<text x="76.0" y="2102.0" font-size="17" font-weight="bold" fill="#3A3550" text-anchor="start" >おまもり</text>
<text x="230.0" y="2102.0" font-size="17" font-weight="bold" fill="#3A3550" text-anchor="start" >ごろ寝</text>
<text x="400.0" y="2102.0" font-size="17" font-weight="normal" fill="#3A3550" text-anchor="start" >そえる：ゲージが相手側へ動くなら0に</text>
<text x="76.0" y="2132.0" font-size="17" font-weight="bold" fill="#3A3550" text-anchor="start" >ちずアプリ</text>
<text x="230.0" y="2132.0" font-size="17" font-weight="bold" fill="#3A3550" text-anchor="start" >いいにおい</text>
<text x="400.0" y="2132.0" font-size="17" font-weight="normal" fill="#3A3550" text-anchor="start" >そえる：わかれ道のレーンを自陣営の側に</text>
<text x="76.0" y="2162.0" font-size="17" font-weight="bold" fill="#3A3550" text-anchor="start" >おうえん団</text>
<text x="230.0" y="2162.0" font-size="17" font-weight="bold" fill="#3A3550" text-anchor="start" >ごほうびデー</text>
<text x="400.0" y="2162.0" font-size="17" font-weight="normal" fill="#3A3550" text-anchor="start" >そえる：ゲージが自陣営側へ動くなら2倍</text>
<text x="76.0" y="2192.0" font-size="17" font-weight="bold" fill="#3A3550" text-anchor="start" >はやおき</text>
<text x="230.0" y="2192.0" font-size="17" font-weight="bold" fill="#3A3550" text-anchor="start" >よふかし</text>
<text x="400.0" y="2192.0" font-size="17" font-weight="normal" fill="#3A3550" text-anchor="start" >いつでも（自陣営の手番中）：2枚引く</text>
<g filter="url(#soft)"><rect x="40" y="2266" width="1000" height="150" rx="24" fill="#FFFFFF"/></g>
<rect x="40" y="2266" width="1000" height="150" rx="24" fill="none" stroke="#D0436A" stroke-width="3"/>
<rect x="64" y="2248" width="311" height="38" rx="19" fill="#D0436A" stroke="#3A3550" stroke-width="3"/>
<text x="82.0" y="2276.0" font-size="22" font-weight="900" fill="#FFFFFF" text-anchor="start" >ハプニング表（1d6）</text>
<text x="76.0" y="2318.0" font-size="17.5" font-weight="normal" fill="#3A3550" text-anchor="start" >1 忘れ物ニュース：何も起こらない</text>
<text x="76.0" y="2352.0" font-size="17.5" font-weight="normal" fill="#3A3550" text-anchor="start" >2 てんし急接近：ゲージ +2</text>
<text x="76.0" y="2386.0" font-size="17.5" font-weight="normal" fill="#3A3550" text-anchor="start" >3 あくまのささやき：ゲージ −2</text>
<text x="566.0" y="2318.0" font-size="17.5" font-weight="normal" fill="#3A3550" text-anchor="start" >4 近道発見：1マス進む（先のマスも処理）</text>
<text x="566.0" y="2352.0" font-size="17.5" font-weight="normal" fill="#3A3550" text-anchor="start" >5 寄り道：1マス戻る（処理しない）</text>
<text x="566.0" y="2386.0" font-size="17.5" font-weight="normal" fill="#3A3550" text-anchor="start" >6 気分屋：手札1枚を捨てて1枚引く</text>
</svg>