<svg xmlns="http://www.w3.org/2000/svg" width="400" height="600" viewBox="0 0 400 600" font-family="'Noto Sans CJK JP','Hiragino Sans','Yu Gothic','Meiryo',sans-serif">
<defs>
<filter id="shadow" x="-20%" y="-20%" width="140%" height="150%">
  <feDropShadow dx="0" dy="5" stdDeviation="3" flood-color="#5A4A2A" flood-opacity="0.22"/>
</filter>
<filter id="soft" x="-20%" y="-20%" width="140%" height="140%">
  <feDropShadow dx="0" dy="3" stdDeviation="5" flood-color="#5A4A2A" flood-opacity="0.12"/>
</filter>
<pattern id="dots" width="26" height="26" patternUnits="userSpaceOnUse">
  <circle cx="4" cy="4" r="1.5" fill="#EADFC8"/>
</pattern>
<pattern id="stripeA" width="12" height="12" patternUnits="userSpaceOnUse" patternTransform="rotate(45)">
  <rect width="6" height="12" fill="#FFFFFF" opacity="0.35"/>
</pattern>
<pattern id="cardback" width="14" height="14" patternUnits="userSpaceOnUse" patternTransform="rotate(45)">
  <rect width="14" height="14" fill="#EFE7F8"/><rect width="7" height="7" fill="#E3D8F2"/>
</pattern>
<linearGradient id="sky" x1="0" y1="0" x2="0" y2="1">
  <stop offset="0" stop-color="#FDF7EC"/><stop offset="1" stop-color="#F7EEDC"/>
</linearGradient>
</defs>
<rect x="4" y="4" width="392" height="592" rx="30" fill="#D0436A" stroke="#3A3550" stroke-width="6"/>
<rect x="20" y="20" width="360" height="560" rx="20" fill="#FBE3EA" stroke="#3A3550" stroke-width="3"/>
<rect x="20" y="20" width="360" height="560" rx="20" fill="url(#stripeA)"/>
<circle cx="200" cy="270" r="128" fill="#FFFFFF" stroke="#3A3550" stroke-width="4"/>
<g transform="translate(100.0,166.0) scale(3.1250)">
<path d="M48 48 Q60 50 58 38" fill="none" stroke="#3A3550" stroke-width="3.2" stroke-linejoin="round" stroke-linecap="round"/>
<path d="M58 38 L53 36 L59 31 L62 37 Z" fill="#7B3FA0" stroke="#3A3550" stroke-width="3.2" stroke-linejoin="round" stroke-linecap="round"/>
<path d="M17 24 L12 7 L26 18 Z" fill="#7B3FA0" stroke="#3A3550" stroke-width="3.2" stroke-linejoin="round" stroke-linecap="round"/>
<path d="M47 24 L52 7 L38 18 Z" fill="#7B3FA0" stroke="#3A3550" stroke-width="3.2" stroke-linejoin="round" stroke-linecap="round"/>
<circle cx="32" cy="36" r="20" fill="#C9A3F0" stroke="#3A3550" stroke-width="3.2" stroke-linejoin="round" stroke-linecap="round"/>
<path d="M14 30 Q20 18 32 18 Q44 18 50 30 Q42 25 32 27 Q22 25 14 30 Z" fill="#7B3FA0" stroke="#3A3550" stroke-width="3.2" stroke-linejoin="round" stroke-linecap="round"/>
<path d="M20 33 L28 36 M44 33 L36 36" stroke="#3A3550" stroke-width="3.2" stroke-linejoin="round" stroke-linecap="round" fill="none"/>
<circle cx="25" cy="39" r="2.4" fill="#3A3550"/><circle cx="39" cy="39" r="2.4" fill="#3A3550"/>
<ellipse cx="19" cy="45" rx="3.4" ry="2.2" fill="#F48FB1"/><ellipse cx="45" cy="45" rx="3.4" ry="2.2" fill="#F48FB1"/>
<path d="M25 46 Q32 52 39 46" fill="none" stroke="#3A3550" stroke-width="3.2" stroke-linejoin="round" stroke-linecap="round"/>
<path d="M35 48 L36.5 52 L38 47.5" fill="#FFFFFF" stroke="#3A3550" stroke-width="1.6" stroke-linejoin="round"/></g>
<rect x="70" y="440" width="260" height="56" rx="28" fill="#D0436A" stroke="#3A3550" stroke-width="4"/>
<text x="200.0" y="478.0" font-size="26" font-weight="900" fill="#FFFFFF" text-anchor="middle" >あくまの切り札</text>
<text x="200.0" y="540.0" font-size="22" font-weight="900" fill="#3A3550" text-anchor="middle" >おかえりロード</text>
</svg>